<?xml version="1.0" standalone="no"?>
<!DOCTYPE svg PUBLIC "-//W3C//DTD SVG 20010904//EN"
 "http://www.w3.org/TR/2001/REC-SVG-20010904/DTD/svg10.dtd">
<svg version="1.0" xmlns="http://www.w3.org/2000/svg"
 width="706.000000pt" height="706.000000pt" viewBox="0 0 706.000000 706.000000"
 preserveAspectRatio="xMidYMid meet">
<metadata>
Created by potrace 1.14, written by Peter Selinger 2001-2017
</metadata>
<g transform="translate(0.000000,706.000000) scale(0.100000,-0.100000)"
fill="#000000" stroke="none">
<path d="M333 7035 c-29 -8 -72 -24 -95 -36 -58 -29 -140 -109 -171 -167 -61
-113 -57 131 -57 -3302 0 -3433 -4 -3189 57 -3302 31 -57 113 -138 171 -167
106 -54 -102 -51 3292 -51 3433 0 3189 -4 3302 57 57 31 138 113 167 171 54
106 51 -102 51 3292 0 3394 3 3186 -51 3292 -29 58 -110 140 -167 171 -113 61
132 57 -3307 56 -2673 0 -3148 -2 -3192 -14z m2497 -2954 c0 -651 -4 -1087
-10 -1150 -14 -136 -42 -240 -90 -338 -131 -267 -367 -413 -731 -453 -208 -23
-455 17 -716 117 l-93 36 0 324 0 325 27 -18 c291 -193 386 -232 538 -221 140
10 245 64 304 155 63 99 61 60 61 1219 l0 1053 355 0 355 0 0 -1049z m2100
-13 c0 -1094 -2 -1164 -41 -1318 -25 -99 -96 -240 -160 -318 -197 -238 -586
-347 -989 -276 -163 29 -435 119 -446 148 -2 6 -3 151 -2 323 l3 311 125 -79
c219 -139 302 -168 445 -156 177 15 290 97 335 245 19 62 20 94 20 1123 l0
1059 355 0 355 0 0 -1062z m1210 -1568 l0 -310 -315 0 -315 0 0 310 0 310 315
0 315 0 0 -310z"/>
</g>
</svg>
