<svg width="706" height="706" viewBox="0 0 706 706" fill="none" xmlns="http://www.w3.org/2000/svg">
<rect x="0.5" y="0.5" width="705" height="705" rx="43.5" fill="#232323" stroke="white"/>
<path d="M188.515 493C175.609 493 163.29 491.382 151.558 488.147C139.825 485.206 128.973 481.382 119 476.676V411.382C128.973 418.147 138.065 423.882 146.278 428.588C154.491 433.294 162.85 435.647 171.356 435.647C183.676 435.647 193.501 432.412 200.834 425.941C208.167 419.471 211.834 409.029 211.834 394.618V193H283.109V397.706C283.109 416.235 280.322 431.676 274.749 444.029C269.176 456.088 261.843 465.794 252.751 473.147C243.951 480.206 233.832 485.206 222.393 488.147C211.247 491.382 199.954 493 188.515 493Z" fill="#6FABEA"/>
<path d="M398.618 493C385.712 493 373.393 491.382 361.66 488.147C349.928 485.206 339.075 481.382 329.103 476.676V411.382C339.075 418.147 348.168 423.882 356.381 428.588C364.593 433.294 372.953 435.647 381.459 435.647C393.778 435.647 403.604 432.412 410.937 425.941C418.27 419.471 421.936 409.029 421.936 394.618V193H493.211V397.706C493.211 416.235 490.425 431.676 484.852 444.029C479.279 456.088 471.946 465.794 462.853 473.147C454.054 480.206 443.935 485.206 432.495 488.147C421.35 491.382 410.057 493 398.618 493Z" fill="#6FABEA"/>
<path d="M550.204 487.265V425.059H614V487.265H550.204Z" fill="#6FABEA"/>
</svg>
